<svg xmlns="http://www.w3.org/2000/svg" viewBox="0 0 168.05 94.49"><defs><style>.cls-1,.cls-2{stroke:#000;stroke-linecap:round;stroke-linejoin:round;}.cls-2{stroke-width:0.75px;}.cls-3,.cls-4{font-size:26.72px;}.cls-3{font-family:Montserrat-Light, Montserrat;font-weight:300;}.cls-4{font-family:Montserrat-Bold, Montserrat;font-weight:700;}.cls-5{letter-spacing:-0.03em;}</style></defs><g id="Слой_2" data-name="Слой 2"><g id="Слой_2-2" data-name="Слой 2"><path class="cls-1" d="M26.42,21.19S-.47,11.19.53,37.08,26.64,73.19,35.75,67.19c0,0-16.46-10.68-7.58-20.44a14.31,14.31,0,0,1,10.48-4.57c4.05,0,8.87-1,9.91-6.16.57-2.81,3.52-5.76,6.37-6a25.56,25.56,0,0,1,7.86,1.11,24.17,24.17,0,0,0,11.33-.59c21.26-6,67.18-19.66,67.18-19.66A6.25,6.25,0,0,1,148,14.52h6.33V10.79L148,3.19,132.42,8l.33,1.44L74,25.88c-.6.17-10.82,3-7.67-5.8,3-8.48-6.11-8.45-6.11-8.45s-6.89-1.55-15.11,7.23C45.08,18.86,40.75,24.63,26.42,21.19Z"/><polygon points="134.57 7.31 133.75 5.3 134.83 4.83 135.7 6.96 134.57 7.31"/><polygon class="cls-2" points="135.22 4.58 133.22 5.41 132.74 4.33 134.86 3.45 135.22 4.58"/><polygon class="cls-2" points="139.64 3.08 137.64 3.91 137.16 2.83 139.28 1.95 139.64 3.08"/><polygon class="cls-2" points="144.14 1.51 142.14 2.34 141.66 1.26 143.78 0.38 144.14 1.51"/><polygon points="139.07 5.8 138.25 3.79 139.33 3.32 140.2 5.45 139.07 5.8"/><polygon points="143.57 4.43 142.76 2.42 143.84 1.95 144.71 4.08 143.57 4.43"/><text class="cls-3" transform="translate(58.12 87.57) scale(0.94 1)">SCHOOL</text><text class="cls-4" transform="translate(36.49 66.45) scale(0.95 1)">GUI<tspan class="cls-5" x="50.42" y="0">T</tspan><tspan x="65.99" y="0">AR</tspan></text></g></g></svg>