<svg width="185" height="185" viewBox="0 0 185 185" fill="none" xmlns="http://www.w3.org/2000/svg">
<path fill-rule="evenodd" clip-rule="evenodd" d="M105.143 184.143C103.478 184.371 101.798 184.554 100.106 184.692L0.308212 84.894C0.445938 83.2017 0.629227 81.5222 0.856842 79.8569L105.143 184.143ZM0.210449 86.2104L98.7895 184.79C97.6553 184.866 96.5155 184.921 95.3704 184.956L0.0436859 89.6294C0.0785828 88.4844 0.134293 87.3447 0.210449 86.2104ZM141.173 171.173C140.019 171.889 138.848 172.58 137.66 173.246L11.7541 47.3398C12.4197 46.1523 13.1108 44.981 13.8265 43.8265L141.173 171.173ZM10.0126 50.5984C10.4143 49.8091 10.827 49.0264 11.2505 48.2505L136.749 173.75C136.311 173.989 135.871 174.224 135.428 174.457C135.087 174.635 134.745 174.812 134.402 174.987L10.0126 50.5984ZM122.892 179.892C121.497 180.376 120.087 180.829 118.662 181.248L3.75174 66.3374C4.17093 64.9131 4.62346 63.5032 5.10844 62.1084L122.892 179.892ZM2.12222 72.708C2.50957 70.9309 2.948 69.1731 3.43588 67.4358L117.564 181.564C115.827 182.052 114.069 182.49 112.292 182.878L2.12222 72.708ZM70.8719 182.458C73.1645 183.007 75.4902 183.471 77.8456 183.846L1.15431 107.154C1.52922 109.51 1.99304 111.835 2.54224 114.128L70.8719 182.458ZM3.01559 116.016C3.8848 119.332 4.93352 122.576 6.15073 125.737L59.2634 178.849C62.4237 180.066 65.6677 181.115 68.9844 181.984L3.01559 116.016ZM153.786 161.786C152.797 162.661 151.789 163.516 150.763 164.349L20.6512 34.2369C21.4842 33.2109 22.3388 32.2031 23.2142 31.2142L153.786 161.786ZM17.1911 38.7769C18.1033 37.5005 19.0471 36.2483 20.0214 35.0214L149.978 164.979C148.752 165.953 147.499 166.897 146.223 167.809L17.1911 38.7769ZM111.124 183.124C109.557 183.445 107.975 183.726 106.38 183.966L1.03439 78.6201C1.27443 77.0249 1.55521 75.4431 1.87563 73.8757L111.124 183.124ZM45.7449 172.331C49.3176 174.428 53.0436 176.292 56.9019 177.902L7.09802 128.098C8.70807 131.956 10.5719 135.682 12.6688 139.255L45.7449 172.331ZM42.0319 170.032C31.2393 162.992 22.0071 153.76 14.9676 142.968L42.0319 170.032ZM145.394 168.394C144.294 169.162 143.177 169.907 142.042 170.628L14.3719 42.9576C15.0927 41.8234 15.8375 40.7058 16.6057 39.6057L145.394 168.394ZM127.96 177.96C126.634 178.51 125.292 179.031 123.936 179.521L5.47856 61.0645C5.96863 59.708 6.48949 58.3665 7.04033 57.0403L127.96 177.96ZM79.509 184.095C81.571 184.385 83.6548 184.606 85.7581 184.758L0.241943 99.2419C0.393448 101.345 0.61525 103.429 0.905045 105.491L79.509 184.095ZM157.405 158.406C156.467 159.33 155.509 160.234 154.532 161.118L23.8821 30.4679C24.7659 29.491 25.6702 28.5328 26.5945 27.5945L157.405 158.406ZM133.46 175.46C131.98 176.192 130.477 176.886 128.954 177.54L7.46024 56.0459C8.11418 54.5225 8.80788 53.02 9.54002 51.54L133.46 175.46ZM87.2687 184.854C89.0002 184.951 90.7444 185 92.5 185C92.997 185 93.4931 184.996 93.9883 184.988L0.011734 91.0117C0.00392151 91.5068 0 92.0029 0 92.5C0 94.2556 0.0489044 95.9998 0.145432 97.7312L87.2687 184.854ZM161.314 154.314C160.276 155.469 159.209 156.598 158.114 157.7L27.3 26.8857C28.4015 25.7911 29.5305 24.7241 30.6857 23.6857L161.314 154.314ZM163.633 151.633C163.091 152.285 162.54 152.929 161.98 153.566L31.4343 23.02C32.0708 22.4602 32.7149 21.9091 33.3667 21.3667L163.633 151.633ZM164.272 150.858C165.109 149.829 165.925 148.782 166.718 147.718L37.2821 18.2821C36.2177 19.0753 35.1709 19.8909 34.1424 20.7281L164.272 150.858ZM180.295 63.2949C181.144 65.8481 181.885 68.4504 182.511 71.0972L113.903 2.48865C116.549 3.1156 119.152 3.8562 121.705 4.70508L180.295 63.2949ZM107.649 1.23438C109.136 1.47949 110.612 1.76013 112.075 2.07532L182.925 72.9248C183.24 74.3877 183.521 75.8635 183.766 77.3513L107.649 1.23438ZM181.209 118.795C181.639 117.343 182.034 115.875 182.394 114.394L70.6063 2.60632C69.125 2.96582 67.6576 3.36108 66.2051 3.79089L181.209 118.795ZM65.1195 4.11951C64.2124 4.40015 63.3113 4.69446 62.4164 5.00208L179.998 122.584C180.306 121.689 180.6 120.788 180.881 119.881L65.1195 4.11951ZM173.184 137.77C173.858 136.572 174.506 135.357 175.127 134.127L50.8733 9.87329C49.6429 10.4944 48.4282 11.1421 47.2301 11.8158L173.184 137.77ZM46.3291 12.3291C44.9444 13.1283 43.5824 13.9623 42.2442 14.83L170.17 142.756C171.038 141.418 171.872 140.056 172.671 138.671L46.3291 12.3291ZM184.679 100.265C184.824 98.5125 184.921 96.7463 184.968 94.9678L90.0323 0.0322266C88.2537 0.0788574 86.4877 0.175659 84.7355 0.321289L184.679 100.265ZM83.4382 0.438232C81.4758 0.629028 79.5314 0.881104 77.6069 1.19263L183.807 107.393C184.119 105.469 184.371 103.524 184.562 101.562L83.4382 0.438232ZM167.318 146.904C168.105 145.823 168.869 144.725 169.61 143.61L41.3903 15.3903C40.2751 16.1309 39.1769 16.8951 38.0964 17.6821L167.318 146.904ZM175.381 51.3811C176.948 54.5334 178.34 57.7876 179.546 61.1313L123.869 5.45459C127.212 6.65979 130.467 8.052 133.619 9.6189L175.381 51.3811ZM182.664 113.25C183.015 111.715 183.329 110.166 183.603 108.603L76.3968 1.39685C74.8342 1.67114 73.2851 1.98462 71.7506 2.3363L182.664 113.25ZM175.597 133.182C176.213 131.925 176.802 130.652 177.363 129.363L55.637 7.63708C54.3484 8.19763 53.075 8.78662 51.8176 9.40332L175.597 133.182ZM184.994 93.5796L184.997 93.2273C184.999 92.9851 185 92.7427 185 92.5C185 90.9531 184.962 89.4153 184.887 87.887L97.113 0.113037C95.5848 0.0379639 94.0468 0 92.5 0C92.364 0 92.2282 0.000244141 92.0923 0.000854492C91.8682 0.00183105 91.6442 0.00366211 91.4204 0.00622559L184.994 93.5796ZM173.851 48.4365C165.302 32.687 152.313 19.698 136.564 11.1493L173.851 48.4365ZM177.787 128.373C178.443 126.813 179.059 125.232 179.631 123.631L61.3692 5.36914C59.7677 5.94141 58.1867 6.55652 56.6274 7.21313L177.787 128.373ZM184.801 86.387C184.639 83.9053 184.38 81.4502 184.026 79.0256L105.974 0.974365C103.55 0.620483 101.095 0.360718 98.6131 0.198853L184.801 86.387Z" fill="url(#paint0_linear_44_244)" fill-opacity="0.31"/>
<defs>
<linearGradient id="paint0_linear_44_244" x1="36.5902" y1="30.1503" x2="146.653" y2="160.997" gradientUnits="userSpaceOnUse">
<stop stop-color="#E96939"/>
<stop offset="0.5" stop-color="#3B7AD6"/>
<stop offset="1" stop-color="#393939"/>
</linearGradient>
</defs>
</svg>
